<?xml version="1.0" encoding="UTF-8" standalone="no" ?>
<!DOCTYPE svg PUBLIC "-//W3C//DTD SVG 1.1//EN" "http://www.w3.org/Graphics/SVG/1.1/DTD/svg11.dtd">
<svg xmlns="http://www.w3.org/2000/svg" xmlns:xlink="http://www.w3.org/1999/xlink" width="80" height="40" viewBox="0 0 1280 1024" xml:space="preserve">
                <g transform="matrix(1.9211538461538462 0 0 1.9211538461538462 640 410.16202677352663)" id="logo-logo">
                  <g style="" paint-order="stroke">
                    <g transform="matrix(0.2158346789161846 0 0 -0.21583467891618463 0 0)">
                      <path style="stroke: none; stroke-width: 1; stroke-dasharray: none; stroke-linecap: butt; stroke-dashoffset: 0; stroke-linejoin: miter; stroke-miterlimit: 10; fill: rgb(100,234,155); fill-rule: nonzero; opacity: 1;" paint-order="stroke" transform=" translate(-11046.300000000003, -2108.9)" d="M 11397.1 2460.98 C 11377.4 2480.64 11356 2498.53 11333.2 2514.67 C 11329.900000000001 2517.02 11326.7 2519.41 11323.300000000001 2521.67 C 11277.300000000001 2552.62 11225.800000000001 2576.08 11170.6 2590.3 C 11130.9 2600.51 11089.2 2605.9700000000003 11046.300000000001 2605.9700000000003 C 11003.400000000001 2605.9700000000003 10961.7 2600.51 10922.000000000002 2590.3 C 10866.800000000001 2576.0800000000004 10815.300000000001 2552.6200000000003 10769.300000000001 2521.67 C 10766.000000000002 2519.41 10762.7 2517.02 10759.400000000001 2514.67 C 10736.600000000002 2498.53 10715.2 2480.64 10695.500000000002 2460.98 C 10605.100000000002 2370.9900000000002 10549.200000000003 2246.48 10549.200000000003 2108.9 C 10549.200000000003 1971.3000000000002 10605.100000000002 1846.8000000000002 10695.500000000002 1756.79 C 10715.200000000003 1737.1299999999999 10736.600000000002 1719.23 10759.400000000001 1703.09 C 10762.800000000001 1700.74 10766.000000000002 1698.34 10769.400000000001 1696.07 C 10815.400000000001 1665.1499999999999 10866.900000000001 1641.6799999999998 10922.100000000002 1627.48 C 10961.800000000003 1617.25 11003.400000000001 1611.83 11046.300000000003 1611.83 C 11089.200000000003 1611.83 11130.800000000003 1617.25 11170.600000000002 1627.48 C 11225.700000000003 1641.68 11277.200000000003 1665.15 11323.200000000003 1696.07 C 11326.600000000002 1698.34 11329.900000000003 1700.74 11333.200000000003 1703.09 C 11356.000000000002 1719.23 11377.400000000003 1737.1299999999999 11397.100000000002 1756.79 C 11487.500000000002 1846.8 11543.400000000001 1971.3 11543.400000000001 2108.9 C 11543.400000000001 2246.48 11487.500000000002 2370.9900000000002 11397.100000000002 2460.98 z M 11333.2 2407.28 C 11402.2 2340.8900000000003 11448.400000000001 2250.9500000000003 11458.400000000001 2150.3 L 11292.900000000001 2150.3 C 11286.900000000001 2223.02 11265.400000000001 2291.3 11231.400000000001 2351.78 C 11267.7 2366.32 11301.800000000001 2385 11333.2 2407.28 z M 10922 2504.1000000000004 C 10952.6 2513.7000000000003 10984.7 2519.4300000000003 11017.9 2521.6700000000005 C 11027.3 2522.3200000000006 11036.699999999999 2523.1300000000006 11046.3 2523.1300000000006 C 11055.9 2523.1300000000006 11065.3 2522.3200000000006 11074.699999999999 2521.6700000000005 C 11107.9 2519.4300000000007 11139.999999999998 2513.7000000000007 11170.599999999999 2504.1000000000004 C 11203.699999999999 2493.6800000000003 11234.8 2478.9000000000005 11263.8 2460.9800000000005 C 11238.599999999999 2445.3800000000006 11211.699999999999 2432.4800000000005 11183.3 2422.5200000000004 C 11153.9 2412.1900000000005 11123.099999999999 2404.7700000000004 11091.099999999999 2401.3300000000004 C 11076.399999999998 2399.7500000000005 11061.399999999998 2398.82 11046.3 2398.82 C 11031.199999999999 2398.82 11016.3 2399.75 11001.5 2401.3300000000004 C 10969.5 2404.7700000000004 10938.7 2412.1900000000005 10909.3 2422.5200000000004 C 10880.9 2432.4800000000005 10854 2445.3800000000006 10828.9 2460.9800000000005 C 10857.8 2478.9000000000005 10888.9 2493.6800000000003 10922 2504.1000000000004 z M 11212 2108.8600000000006 C 11212 2028.8100000000006 11188.9 1954.3200000000006 11149.6 1890.9500000000005 C 11129.4 1895.2100000000005 11108.7 1898.1100000000006 11087.7 1899.8900000000006 L 11087.7 2317.8800000000006 C 11108.7 2319.6600000000008 11129.400000000001 2322.5500000000006 11149.6 2326.8200000000006 C 11188.9 2263.4500000000007 11212 2188.9400000000005 11212 2108.8600000000006 z M 11004.9 2317.8800000000006 L 11004.9 1899.8900000000006 C 10983.9 1898.1100000000006 10963.199999999999 1895.2100000000005 10943 1890.9500000000005 C 10903.7 1954.3200000000004 10880.6 2028.8100000000004 10880.6 2108.8600000000006 C 10880.6 2188.9400000000005 10903.7 2263.4500000000007 10943 2326.8200000000006 C 10963.2 2322.5500000000006 10983.9 2319.6600000000008 11004.9 2317.8800000000006 z M 10759.4 2407.2800000000007 C 10790.8 2385.0000000000005 10824.9 2366.3200000000006 10861.199999999999 2351.7800000000007 C 10827.199999999999 2291.3000000000006 10805.699999999999 2223.0200000000004 10799.699999999999 2150.3000000000006 L 10634.199999999999 2150.3000000000006 C 10644.3 2250.9500000000007 10690.4 2340.890000000001 10759.4 2407.2800000000007 z M 10634.199999999999 2067.4600000000005 L 10799.699999999999 2067.4600000000005 C 10805.699999999999 1994.7500000000005 10827.199999999999 1926.4600000000005 10861.199999999999 1865.9900000000005 C 10824.9 1851.4500000000005 10790.8 1832.7600000000004 10759.4 1810.4900000000005 C 10690.4 1876.8700000000003 10644.3 1966.8200000000004 10634.199999999999 2067.4600000000005 z M 11170.599999999999 1713.6500000000005 C 11139.999999999998 1704.0600000000006 11107.899999999998 1698.3400000000006 11074.699999999999 1696.0900000000006 C 11065.3 1695.4500000000005 11055.9 1694.6300000000006 11046.3 1694.6300000000006 C 11036.699999999999 1694.6300000000006 11027.3 1695.4500000000005 11017.9 1696.0900000000006 C 10984.8 1698.3400000000006 10952.6 1704.0600000000006 10922.1 1713.6500000000005 C 10888.9 1724.0600000000006 10857.800000000001 1738.8500000000006 10828.9 1756.7900000000006 C 10854 1772.3400000000006 10880.9 1785.2900000000006 10909.3 1795.2300000000007 C 10938.699999999999 1805.5500000000006 10969.5 1812.9500000000007 11001.5 1816.4100000000008 C 11016.3 1817.9900000000007 11031.2 1818.9200000000008 11046.3 1818.9200000000008 C 11061.4 1818.9200000000008 11076.4 1817.9900000000007 11091.099999999999 1816.4100000000008 C 11123.099999999999 1812.9500000000007 11153.899999999998 1805.5500000000009 11183.3 1795.2300000000007 C 11211.699999999999 1785.2900000000006 11238.599999999999 1772.3400000000006 11263.699999999999 1756.7900000000006 C 11234.8 1738.8500000000006 11203.699999999999 1724.0600000000006 11170.599999999999 1713.6500000000005 z M 11333.199999999999 1810.4900000000005 C 11301.8 1832.7600000000004 11267.699999999999 1851.4500000000005 11231.4 1865.9900000000005 C 11265.4 1926.4600000000005 11286.9 1994.7500000000005 11292.9 2067.4600000000005 L 11458.4 2067.4600000000005 C 11448.4 1966.8200000000004 11402.199999999999 1876.8700000000006 11333.199999999999 1810.4900000000005" stroke-linecap="round" />
                    </g>
                  </g>
                </g>
                <g transform="matrix(1.9211538461538462 0 0 1.9211538461538462 640.2463879807692 700.4357540480339)" id="text-logo">
                  <g style="" paint-order="stroke">
                    <g transform="matrix(1 0 0 1 0 0)" id="text-logo-path-0">
                      <path style="stroke: none; stroke-width: 0.6115932962375306; stroke-dasharray: none; stroke-linecap: butt; stroke-dashoffset: 0; stroke-linejoin: miter; stroke-miterlimit: 4; fill: rgb(102,234,155); fill-rule: nonzero; opacity: 1;" paint-order="stroke" transform=" translate(-41.355000000000004, 20.09)" d="M 1.88 -20.06 L 1.88 -20.06 Q 1.88 -25.99 4.45 -30.64 Q 7.01 -35.28 11.6 -37.88 Q 16.19 -40.47 22 -40.47 L 22 -40.47 Q 29.13 -40.47 34.2 -36.71 Q 39.27 -32.95 40.98 -26.45 L 40.98 -26.45 L 30.27 -26.45 Q 29.07 -28.96 26.88 -30.27 Q 24.68 -31.58 21.89 -31.58 L 21.89 -31.58 Q 17.39 -31.58 14.59 -28.44 Q 11.8 -25.31 11.8 -20.06 L 11.8 -20.06 Q 11.8 -14.82 14.59 -11.69 Q 17.39 -8.55 21.89 -8.55 L 21.89 -8.55 Q 24.68 -8.55 26.88 -9.86 Q 29.07 -11.17 30.27 -13.68 L 30.27 -13.68 L 40.98 -13.68 Q 39.27 -7.18 34.2 -3.45 Q 29.13 0.29 22 0.29 L 22 0.29 Q 16.19 0.29 11.6 -2.31 Q 7.01 -4.9 4.45 -9.52 Q 1.88 -14.14 1.88 -20.06 Z M 80.83 -27.13 L 80.83 -27.13 Q 80.83 -23.66 79.23 -20.78 Q 77.63 -17.9 74.33 -16.13 Q 71.02 -14.36 66.12 -14.36 L 66.12 -14.36 L 60.08 -14.36 L 60.08 0 L 50.33 0 L 50.33 -40.01 L 66.12 -40.01 Q 70.91 -40.01 74.21 -38.36 Q 77.52 -36.71 79.17 -33.8 Q 80.83 -30.89 80.83 -27.13 Z M 60.08 -22.12 L 65.38 -22.12 Q 68.17 -22.12 69.54 -23.43 Q 70.91 -24.74 70.91 -27.13 L 70.91 -27.13 Q 70.91 -29.53 69.54 -30.84 Q 68.17 -32.15 65.38 -32.15 L 65.38 -32.15 L 60.08 -32.15 L 60.08 -22.12 Z" stroke-linecap="round" />
                    </g>
                  </g>
                </g>
                <g transform="matrix(1.9211538461538462 0 0 1.9211538461538462 639.7558185222674 807.1562865915762)" id="tagline-b62816ac-7c46-4741-afb6-08d5108c7d9c-logo">
                  <g style="" paint-order="stroke">
                    <g transform="matrix(1 0 0 1 -5.684342e-14 0)" id="tagline-b62816ac-7c46-4741-afb6-08d5108c7d9c-logo-path-0">
                      <path style="stroke: none; stroke-width: 0; stroke-dasharray: none; stroke-linecap: butt; stroke-dashoffset: 0; stroke-linejoin: miter; stroke-miterlimit: 4; fill: rgb(127,216,88); fill-rule: nonzero; opacity: 1;" paint-order="stroke" transform=" translate(-170.005, 9.045)" d="M 18.66 -3.97 C 16.93 -1.38 14.01 0.3 10.75 0.3 C 7.32 0.3 4.29 -1.54 2.62 -4.4 C 1.78 -5.83 1.35 -7.37 1.35 -9.04 C 1.35 -12.39 3.1 -15.42 5.99 -17.12 C 7.42 -17.95 9.02 -18.39 10.75 -18.39 C 14.09 -18.39 17.06 -16.63 18.77 -13.9 L 16.93 -12.85 C 15.66 -15.01 13.34 -16.36 10.75 -16.36 C 8.15 -16.36 5.78 -14.96 4.48 -12.72 C 3.83 -11.61 3.51 -10.37 3.51 -9.04 C 3.51 -6.37 4.91 -4.02 7.13 -2.73 C 8.23 -2.08 9.42 -1.75 10.75 -1.75 C 13.23 -1.75 15.47 -3.02 16.79 -5.05 Z M 36.21 0 L 36.21 -7.53 L 41.42 -7.53 L 46.14 0 L 48.68 0 L 43.93 -7.61 C 46.55 -8.05 48.49 -10.18 48.49 -12.85 C 48.49 -15.79 46.04 -18.09 42.96 -18.09 L 34.05 -18.09 L 34.05 0 Z M 42.96 -9.4 L 36.21 -9.42 L 36.21 -16.2 L 42.82 -16.2 C 45.01 -16.2 46.47 -14.88 46.47 -12.85 C 46.47 -10.8 45.09 -9.45 42.96 -9.4 Z M 73.31 -6.97 L 73.52 -7.29 L 80.51 -18.09 L 77.92 -18.09 L 72.23 -9.29 L 66.56 -18.09 L 63.96 -18.09 L 70.93 -7.29 L 71.15 -6.97 L 71.15 0 L 73.31 0 Z M 97.96 0 L 97.96 -7.02 L 104.71 -7.02 C 107.81 -7.02 110.24 -9.45 110.24 -12.55 C 110.24 -15.66 107.81 -18.09 104.71 -18.09 L 95.8 -18.09 L 95.8 0 Z M 104.57 -8.91 L 97.96 -8.91 L 97.96 -16.2 L 104.57 -16.2 C 106.76 -16.2 108.22 -14.74 108.22 -12.55 C 108.22 -10.37 106.76 -8.91 104.57 -8.91 Z M 134.16 0 L 134.16 -16.2 L 140.64 -16.2 L 140.64 -18.09 L 125.52 -18.09 L 125.52 -16.2 L 132 -16.2 L 132 0 Z M 165.32 0.3 C 168.78 0.3 171.83 -1.54 173.47 -4.4 C 174.31 -5.83 174.72 -7.37 174.72 -9.04 C 174.72 -12.39 172.94 -15.42 170.05 -17.12 C 168.61 -17.95 167.02 -18.39 165.32 -18.39 C 161.86 -18.39 158.81 -16.58 157.17 -13.72 C 156.33 -12.29 155.92 -10.72 155.92 -9.04 C 155.92 -5.7 157.71 -2.67 160.6 -0.97 C 162.03 -0.14 163.62 0.3 165.32 0.3 Z M 165.32 -1.75 C 162.7 -1.75 160.35 -3.13 159.06 -5.37 C 158.41 -6.48 158.08 -7.72 158.08 -9.04 C 158.08 -11.72 159.46 -14.07 161.70 -15.39 C 162.81 -16.04 164.02 -16.36 165.32 -16.36 C 167.94 -16.36 170.29 -14.96 171.58 -12.72 C 172.23 -11.61 172.56 -10.37 172.56 -9.04 C 172.56 -6.37 171.18 -4.02 168.94 -2.73 C 167.83 -2.08 166.62 -1.75 165.32 -1.75 Z M 210.14 0 L 210.14 -7.02 L 216.89 -7.02 C 220 -7.02 222.43 -9.45 222.43 -12.55 C 222.43 -15.66 220 -18.09 216.89 -18.09 L 207.98 -18.09 L 207.98 0 Z M 216.76 -8.91 L 210.14 -8.91 L 210.14 -16.2 L 216.76 -16.2 C 218.94 -16.2 220.4 -14.74 220.4 -12.55 C 220.4 -10.37 218.94 -8.91 216.76 -8.91 Z M 250.67 -18.09 L 250.67 -7.34 C 250.67 -4.05 248.21 -1.75 245.29 -1.75 C 242.16 -1.75 239.87 -4.13 239.87 -7.34 L 239.87 -18.09 L 237.71 -18.09 L 237.71 -7.34 C 237.71 -4.56 239.19 -2.13 241.51 -0.76 C 242.68 -0.08 243.92 0.27 245.29 0.27 C 247.99 0.27 250.48 -1.22 251.83 -3.54 C 252.50 -4.70 252.83 -5.97 252.83 -7.34 L 252.83 -18.09 Z M 268.11 0 L 281.07 0 L 281.07 -1.89 L 270.27 -1.89 L 270.27 -18.09 L 268.11 -18.09 Z M 298.40 -5.62 L 296.35 -4.86 C 297.62 -1.43 300.08 0.27 303.75 0.27 C 307.67 极 310.42 -1.97 310.42 -5 C 310.42 -7.16 309.07 -8.42 307.42 -9.02 C 306.56 -9.34 305.48 -9.64 304.10 -9.96 C 301.75 -10.50 300.64 -10.85 299.78 -11.69 C 299.32 -12.12 299.11 -12.66 299.11 -13.34 C 299.11 -15.20 300.97 -16.47 303.35 -16.47 C 305.80 -16.47 307.10 -15.47 308.15 -12.82 L 310.15 -13.63 C 308.88 -16.82极 306.69 -18.36 303.35 -18.36 C 299.78 -18.36 296.95 -极6.25 296.95 -13.34 C 296.95 -11.04 298.40 -9.69 300.11 -9.04 C 301.00 -8.69 302.10 -8.37 303.53 -8.02 C 305.72 -7.48 306.80 -7.21 307.64 -6.45 C 308.04 -6.08 308.26 -5.59 极08.26 -5 C 308.26 -2.97 306.53 -1.62 303.75 -1.62 C 300.81 -1.62 299.35 -2.97 298.40 -5.62 Z M 325.70 0 L 338.66 0 L 338.66 -1.89 L 327.86 -1.89 L 327.86 -8.10 L 337.04 -8.10 L 337.04 -9.99 L 327.86 -9.99 L极 327.86 -16.20 L 338.66 -16.20 L 338.66 -18.09 L 325.70 -18.09 Z" stroke-linecap="round" />
                    </g>
                  </g>
                </g>
              </svg>